HIERARCHY
ROOT Hips
{
	OFFSET 0.000000 0.000000 0.000000
	CHANNELS 6 Xposition Yposition Zposition Xrotation Yrotation Zrotation
	JOINT Chest
	{
		OFFSET 0.000000 1.136021 10.224184
		CHANNELS 3 Xrotation Yrotation Zrotation
		JOINT Chest2
		{
			OFFSET 0.000000 -0.000000 11.333265
			CHANNELS 3 Xrotation Yrotation Zrotation
			JOINT Chest3
			{
				OFFSET 0.000000 0.005192 10.347984
				CHANNELS 3 Xrotation Yrotation Zrotation
				JOINT Chest4
				{
					OFFSET 0.000000 0.005197 10.336430
					CHANNELS 3 Xrotation Yrotation Zrotation
					JOINT Neck
					{
						OFFSET 0.000000 -0.000001 14.463490
						CHANNELS 3 Xrotation Yrotation Zrotation
						JOINT Head
						{
							OFFSET 0.000000 -0.011165 9.624710
							CHANNELS 3 Xrotation Yrotation Zrotation
							End Site
							{
								OFFSET 0.000000 -0.001503 17.845871
							}
						}
					}
					JOINT RightCollar
					{
						OFFSET -3.157643 -0.000000 8.110622
						CHANNELS 3 Xrotation Yrotation Zrotation
						JOINT RightShoulder
						{
							OFFSET -14.841243 0.000000 0.000000
							CHANNELS 3 Xrotation Yrotation Zrotation
							JOINT RightElbow
							{
								OFFSET -31.724693 0.000000 0.000000
								CHANNELS 3 Xrotation Yrotation Zrotation
								JOINT RightWrist
								{
									OFFSET -25.942017 0.000000 0.000000
									CHANNELS 3 Xrotation Yrotation Zrotation
									End Site
									{
										OFFSET -19.392693 0.000000 0.000000
									}
								}
							}
						}
					}
					JOINT LeftCollar
					{
						OFFSET 3.157643 -0.000000 8.110622
						CHANNELS 3 Xrotation Yrotation Zrotation
						JOINT LeftShoulder
						{
							OFFSET 14.841243 0.000000 0.000000
							CHANNELS 3 Xrotation Yrotation Zrotation
							JOINT LeftElbow
							{
								OFFSET 31.724693 0.000000 0.000000
								CHANNELS 3 Xrotation Yrotation Zrotation
								JOINT LeftWrist
								{
									OFFSET 25.942017 0.000000 0.000000
									CHANNELS 3 Xrotation Yrotation Zrotation
									End Site
									{
										OFFSET 19.392693 0.000000 0.000000
									}
								}
							}
						}
					}
				}
			}
		}
	}
	JOINT RightHip
	{
		OFFSET -8.427108 0.001539 0.013854
		CHANNELS 3 Xrotation Yrotation Zrotation
		JOINT RightKnee
		{
			OFFSET 0.000000 0.001229 -43.437389
			CHANNELS 3 Xrotation Yrotation Zrotation
			JOINT RightAnkle
			{
				OFFSET 0.000000 0.002070 -42.439701
				CHANNELS 3 Xrotation Yrotation Zrotation
				JOINT RightToe
				{
					OFFSET 0.000000 -19.371378 -8.481461
					CHANNELS 3 Xrotation Yrotation Zrotation
					End Site
					{
						OFFSET 0.000000 -7.762478 -1.743713
					}
				}
			}
		}
	}
	JOINT LeftHip
	{
		OFFSET 8.427108 0.001285 0.011561
		CHANNELS 3 Xrotation Yrotation Zrotation
		JOINT LeftKnee
		{
			OFFSET 0.000000 0.001229 -43.437389
			CHANNELS 3 Xrotation Yrotation Zrotation
			JOINT LeftAnkle
			{
				OFFSET 0.000000 0.002070 -42.439705
				CHANNELS 3 Xrotation Yrotation Zrotation
				JOINT LeftToe
				{
					OFFSET 0.000000 -19.371378 -8.481461
					CHANNELS 3 Xrotation Yrotation Zrotation
					End Site
					{
						OFFSET 0.000000 -7.762478 -1.743713
					}
				}
			}
		}
	}
}
MOTION
Frames: 7
Frame Time: 0.004184
310.765350 -0.688162 96.406082 -2.566771 -1.751220 -169.409332 1.006825 -1.136977 0.808140 -5.381015 -0.540664 0.303369 0.439418 -0.540695 0.303313 6.166059 -0.380567 0.267146 15.938779 0.378671 0.967640 -6.427897 0.341270 1.898681 2.978334 -5.256372 -1.102595 -38.985682 -63.801685 -36.442625 27.597212 -10.083032 67.612370 -1.646011 1.863437 13.027903 2.205836 7.775896 -1.395443 -40.910706 69.440587 41.370439 24.708834 27.438451 -68.142489 -4.534615 1.759481 -18.066050 -4.417053 2.032871 -2.856874 7.922544 -0.497239 0.166291 -4.447847 -5.182844 1.336083 -0.000001 0.000000 -0.000000 -1.468814 -4.887536 2.907494 0.506367 0.789547 0.130657 -2.141188 3.113816 -3.179838 -0.000002 -0.000000 -0.000001 
310.764435 -0.680758 96.402824 -2.559541 -1.746131 -169.405453 1.006338 -1.129729 0.814814 -5.381229 -0.537775 0.306664 0.439202 -0.537807 0.306609 6.165894 -0.378163 0.269383 15.890416 0.377414 0.962580 -6.517711 0.340132 1.889168 2.974846 -5.263336 -1.095163 -38.972554 -63.799943 -36.423705 27.595098 -10.082235 67.609065 -1.648613 1.871704 13.041836 2.207642 7.769459 -1.388085 -40.907089 69.438374 41.380783 24.701938 27.442599 -68.135577 -4.533734 1.770517 -18.070823 -4.405949 2.048908 -2.843035 7.931066 -0.528631 0.158710 -4.471448 -5.156015 1.323447 0.000001 -0.000000 0.000000 -1.452327 -4.903409 2.907786 0.499498 0.829697 0.133178 -2.139046 3.092335 -3.187969 0.000002 -0.000000 0.000001 
310.763458 -0.673328 96.399506 -2.552317 -1.740986 -169.401764 1.005786 -1.122396 0.821729 -5.381473 -0.534861 0.310066 0.438959 -0.534894 0.310011 6.165706 -0.375732 0.271705 15.841637 0.376080 0.957334 -6.608329 0.338920 1.879289 2.971382 -5.270323 -1.087684 -38.959112 -63.798031 -36.404587 27.592706 -10.081432 67.605451 -1.651261 1.879915 13.055551 2.209404 7.763064 -1.380538 -40.903752 69.436243 41.391336 24.695172 27.446910 -68.129026 -4.532952 1.781685 -18.075633 -4.394840 2.065308 -2.828038 7.939625 -0.560783 0.150438 -4.495292 -5.128760 1.310581 -0.000002 -0.000000 0.000001 -1.435702 -4.919497 2.908163 0.492503 0.870457 0.135893 -2.136903 3.070501 -3.196228 0.000000 -0.000000 0.000001 
310.762451 -0.665885 96.396172 -2.545098 -1.735807 -169.398172 1.005195 -1.115016 0.828782 -5.381736 -0.531933 0.313535 0.438697 -0.531965 0.313479 6.165508 -0.373284 0.274072 15.792606 0.374712 0.951976 -6.699402 0.337685 1.869185 2.967926 -5.277327 -1.080183 -38.945486 -63.796023 -36.385312 27.590163 -10.080621 67.601674 -1.653934 1.888106 13.069147 2.211141 7.756696 -1.372886 -40.900587 69.434159 41.402022 24.688487 27.451302 -68.122709 -4.532234 1.792927 -18.080462 -4.383728 2.081916 -2.812378 7.948204 -0.593374 0.141778 -4.519263 -5.101258 1.297590 0.000002 -0.000000 0.000001 -1.419000 -4.935706 2.908593 0.485435 0.911570 0.138718 -2.134766 3.048463 -3.204558 0.000000 -0.000000 -0.000000 
310.761444 -0.658439 96.392815 -2.537883 -1.730621 -169.394606 1.004595 -1.107625 0.835870 -5.382000 -0.529000 0.317018 0.438432 -0.529033 0.316963 6.165305 -0.370834 0.276450 15.743516 0.373348 0.946577 -6.790590 0.336479 1.859004 2.964474 -5.284333 -1.072677 -38.931802 -63.793981 -36.365997 27.587566 -10.079816 67.597843 -1.656607 1.896292 13.082705 2.212870 7.750333 -1.365211 -40.897465 69.432097 41.412724 24.681823 27.455709 -68.116438 -4.531528 1.804193 -18.085299 -4.372620 2.098577 -2.796557 7.956778 -0.626078 0.133026 -4.543275 -5.073690 1.284581 0.000001 -0.000000 -0.000001 -1.402277 -4.951948 2.909033 0.478349 0.952769 0.141573 -2.132626 3.026373 -3.212906 0.000000 -0.000000 0.000001 
310.760437 -0.651001 96.389481 -2.530665 -1.725450 -169.391000 1.004014 -1.100260 0.842890 -5.382255 -0.526076 0.320470 0.438175 -0.526109 0.320416 6.165109 -0.368391 0.278806 15.694549 0.372030 0.941209 -6.881544 0.335349 1.848889 2.961011 -5.291333 -1.065186 -38.918216 -63.792000 -36.346766 27.585063 -10.079010 67.594100 -1.659266 1.904505 13.096325 2.214607 7.743954 -1.357586 -40.894214 69.429986 41.423335 24.675115 27.460077 -68.110066 -4.530796 1.815424 -18.090113 -4.361514 2.115133 -2.781067 7.965322 -0.658569 0.124482 -4.567201 -5.046235 1.271653 0.000001 -0.000000 0.000000 -1.385595 -4.968129 2.909450 0.471303 0.993794 0.144374 -2.130492 3.004384 -3.221213 0.000000 -0.000000 0.000000 
310.759491 -0.643578 96.386177 -2.523441 -1.720317 -169.387257 1.003482 -1.092956 0.849741 -5.382492 -0.523171 0.323844 0.437941 -0.523204 0.323791 6.164929 -0.365969 0.281106 15.645890 0.370795 0.935947 -6.971925 0.334344 1.838994 2.957524 -5.298315 -1.057731 -38.904853 -63.790128 -36.327693 27.582756 -10.078209 67.590575 -1.661883 1.912761 13.110096 2.216368 7.737541 -1.350093 -40.890758 69.427807 41.433775 24.668309 27.464317 -68.103406 -4.529994 1.826562 -18.094891 -4.350416 2.131430 -2.766410 7.973821 -0.690522 0.116443 -4.590946 -5.019077 1.258912 -0.000003 0.000000 -0.000000 -1.369012 -4.984159 2.909809 0.464348 1.034383 0.147042 -2.128359 2.982648 -3.229427 -0.000003 -0.000000 -0.000000 
